<?xml version="1.0" encoding="UTF-8"?>
<!DOCTYPE svg PUBLIC "-//W3C//DTD SVG 1.1//EN" "http://www.w3.org/Graphics/SVG/1.1/DTD/svg11.dtd">
<!-- Creator: CorelDRAW (Not for commercial use) -->
<svg xmlns="http://www.w3.org/2000/svg" xml:space="preserve" width="0.983941in" height="0.983709in" version="1.1" style="shape-rendering:geometricPrecision; text-rendering:geometricPrecision; image-rendering:optimizeQuality; fill-rule:evenodd; clip-rule:evenodd"
viewBox="0 0 75531 75513"
 xmlns:xlink="http://www.w3.org/1999/xlink"
 xmlns:xodm="http://www.corel.com/coreldraw/odm/2003">
 <defs>
  <style type="text/css">
   <![CDATA[
    .fil0 {fill:black}
    .fil1 {fill:#61D700}
   ]]>
  </style>
 </defs>
 <g id="Layer_x0020_1">
  <metadata id="CorelCorpID_0Corel-Layer"/>
  <g id="_105553334502112">
   <path class="fil0" d="M28220 46504c-2343,978 -2335,600 -5294,2240 -3154,1749 -5805,4444 -7383,7716 -1031,2137 -1073,3551 -1549,6016 -3726,-3403 -7659,-9675 -9326,-16404 -5215,-21035 10277,-42515 33245,-42418 22941,97 38212,21690 32907,42544 -868,3413 -2218,6429 -3835,9160 -1178,1989 -4340,6216 -5749,7118 -976,-6872 -3717,-10494 -9004,-13666 -2462,-1477 -3888,-1641 -5204,-2326 1091,-1076 1586,-1240 2854,-2946 6286,-8454 2655,-23784 -12120,-23830 -12651,-40 -17539,11020 -14494,19864 1135,3296 2703,4821 4953,6931zm47223 -6479c1403,-20300 -14182,-38592 -35313,-39943 -21730,-1390 -38770,15316 -40050,35362 -1384,21676 15327,38707 35348,39995 5754,371 11445,-666 16190,-2534 12860,-5064 22737,-17131 23825,-32880z"/>
   <path class="fil1" d="M52334 56134c-1016,-1352 -2170,-2785 -3285,-4172 -347,-432 -1398,-1696 -1904,-1818 -1139,-274 -1822,770 -2069,1605 -640,2162 1006,4094 1885,5289 1004,1365 2054,2866 3057,4307 703,1009 2206,4032 4033,2371 579,-526 1801,-3839 2384,-4986 2054,-4042 3889,-6571 6824,-9806 3117,-3437 7567,-5540 7873,-8754 106,-1115 -357,-2248 -1010,-2614 -1658,-930 -4234,1254 -5026,1883 -2910,2315 -4935,4433 -7296,7438 -1007,1281 -2073,2859 -2959,4406l-2506 4850z"/>
  </g>
 </g>
</svg>
