<?xml version="1.0" encoding="UTF-8"?>
<!DOCTYPE svg PUBLIC "-//W3C//DTD SVG 1.1//EN" "http://www.w3.org/Graphics/SVG/1.1/DTD/svg11.dtd">
<!-- Creator: CorelDRAW (Not for commercial use) -->
<svg xmlns="http://www.w3.org/2000/svg" xml:space="preserve" width="1.46041in" height="1.49726in" version="1.1" style="shape-rendering:geometricPrecision; text-rendering:geometricPrecision; image-rendering:optimizeQuality; fill-rule:evenodd; clip-rule:evenodd"
viewBox="0 0 152031 155867"
 xmlns:xlink="http://www.w3.org/1999/xlink"
 xmlns:xodm="http://www.corel.com/coreldraw/odm/2003">
 <defs>
  <style type="text/css">
   <![CDATA[
    .fil0 {fill:#61D700}
   ]]>
  </style>
 </defs>
 <g id="Layer_x0020_1">
  <metadata id="CorelCorpID_0Corel-Layer"/>
  <path class="fil0" d="M42932 109057c-5894,-7838 -12586,-16153 -19051,-24197 -2011,-2503 -8110,-9835 -11044,-10540 -6608,-1590 -10568,4466 -12001,9309 -3710,12541 5834,23743 10931,30674 5822,7917 11910,16622 17730,24978 4075,5850 12793,23384 23392,13751 3360,-3054 10444,-22262 13826,-28916 11913,-23439 22556,-38111 39571,-56868 18079,-19929 43887,-32128 45657,-50770 615,-6468 -2069,-13034 -5859,-15160 -9615,-5392 -24556,7269 -29147,10922 -16876,13427 -28620,25710 -42312,43136 -5839,7431 -12020,16579 -17162,25552l-14531 28130z"/>
 </g>
</svg>
