<?xml version="1.0" encoding="UTF-8"?>
<!DOCTYPE svg PUBLIC "-//W3C//DTD SVG 1.1//EN" "http://www.w3.org/Graphics/SVG/1.1/DTD/svg11.dtd">
<!-- Creator: CorelDRAW (Not for commercial use) -->
<svg xmlns="http://www.w3.org/2000/svg" xml:space="preserve" width="0.983949in" height="0.983709in" version="1.1" style="shape-rendering:geometricPrecision; text-rendering:geometricPrecision; image-rendering:optimizeQuality; fill-rule:evenodd; clip-rule:evenodd"
viewBox="0 0 49132 49120"
 xmlns:xlink="http://www.w3.org/1999/xlink"
 xmlns:xodm="http://www.corel.com/coreldraw/odm/2003">
 <defs>
  <style type="text/css">
   <![CDATA[
    .fil0 {fill:black}
    .fil1 {fill:#DE2B2F}
   ]]>
  </style>
 </defs>
 <g id="Layer_x0020_1">
  <metadata id="CorelCorpID_0Corel-Layer"/>
  <g id="_105553334490624">
   <path class="fil0" d="M18357 30250c-1524,636 -1519,390 -3444,1457 -2052,1138 -3776,2891 -4803,5019 -671,1390 -698,2310 -1008,3913 -2424,-2214 -4982,-6293 -6067,-10671 -3392,-13683 6685,-27655 21626,-27592 14923,63 24856,14109 21406,27675 -565,2220 -1443,4182 -2494,5958 -766,1294 -2823,4044 -3740,4630 -635,-4470 -2418,-6826 -5857,-8889 -1601,-961 -2529,-1068 -3385,-1513 710,-700 1032,-807 1856,-1916 4089,-5499 1727,-15471 -7884,-15501 -8229,-26 -11409,7168 -9428,12921 738,2144 1758,3136 3222,4509zm30718 -4215c912,-13205 -9225,-25104 -22971,-25983 -14135,-904 -25220,9963 -26052,23003 -900,14100 9970,25178 22994,26017 3743,241 7445,-433 10531,-1649 8365,-3294 14790,-11144 15498,-21388z"/>
   <path class="fil1" d="M29481 22681c2008,-1745 8711,-6624 9615,-7787 1268,-1630 1759,-5042 95,-6401 -2104,-1717 -4848,327 -6287,1321 -4940,3409 -9800,8027 -13686,12313 -1474,-1246 -3374,-3551 -4802,-5323 -1563,-1941 -3438,-5656 -5035,-2735 -2175,3978 3313,11871 5145,13706 -349,800 -1193,1793 -1725,2670 -566,934 -1087,1828 -1586,2862 -853,1768 -2002,4996 -578,7065 1910,2775 3948,-1505 4783,-2691 626,-889 1187,-1736 1863,-2579 683,-853 1306,-1578 1854,-2362l3356 2640c1083,844 2255,1634 3484,2441 1971,1296 5720,4070 8046,1433 990,-1123 1096,-3083 597,-4696 -1085,-3513 -5492,-4464 -9030,-7100 -109,-81 -345,-276 -404,-332 -212,-202 -137,-122 -254,-293l4549 -4151z"/>
  </g>
 </g>
</svg>
