<?xml version="1.0" encoding="UTF-8"?>
<!DOCTYPE svg PUBLIC "-//W3C//DTD SVG 1.1//EN" "http://www.w3.org/Graphics/SVG/1.1/DTD/svg11.dtd">
<!-- Creator: CorelDRAW (Not for commercial use) -->
<svg xmlns="http://www.w3.org/2000/svg" xml:space="preserve" width="1.73947in" height="1.73947in" version="1.1" style="shape-rendering:geometricPrecision; text-rendering:geometricPrecision; image-rendering:optimizeQuality; fill-rule:evenodd; clip-rule:evenodd"
viewBox="0 0 166842 166842"
 xmlns:xlink="http://www.w3.org/1999/xlink"
 xmlns:xodm="http://www.corel.com/coreldraw/odm/2003">
 <defs>
  <style type="text/css">
   <![CDATA[
    .str0 {stroke:#373535;stroke-width:288;stroke-miterlimit:2.61313}
    .str1 {stroke:black;stroke-width:288;stroke-miterlimit:2.61313}
    .fil0 {fill:#E6E7E8}
    .fil1 {fill:black}
   ]]>
  </style>
 </defs>
 <g id="Layer_x0020_1">
  <metadata id="CorelCorpID_0Corel-Layer"/>
  <rect class="fil0 str0" x="144" y="144" width="166554" height="166554" rx="19545" ry="19545"/>
  <g id="_105553684003264">
   <path class="fil1 str1" d="M62463 104709l4291 -15947 11600 11531 -15891 4416zm21864 -7470c-1578,-1348 -13938,-13607 -14572,-14758 1416,-948 35537,-35400 39542,-39405l4168 -4170c728,-744 844,-1018 1787,-1458 1766,2637 12496,11903 14271,14548l-45196 45244zm35186 -64147c819,-1542 4351,-4868 7171,-5396 4551,-852 6801,1982 8633,3865 1925,1979 4849,4035 4093,8763 -463,2895 -4297,6534 -5719,7316 -1120,-1669 -5307,-5446 -7019,-7158 -1535,-1535 -6348,-5922 -7159,-7390zm26099 7506c1148,-7558 -4446,-12102 -7378,-15013 -3847,-3822 -10627,-5991 -16929,-2468 -2372,1326 -4399,3783 -6003,5392l-51128 51171c-1118,1114 -1756,1418 -2342,3487l-3612 13063c-829,2999 -1654,5981 -2469,8939 -390,1416 -1208,3356 -865,4850 987,4297 7757,1102 12221,-155 2985,-840 5995,-1657 8939,-2465 2680,-734 6411,-1534 8915,-2491 1825,-698 4649,-3973 6031,-5357 3818,-3824 7431,-7444 11249,-11268l34176 -34209c4272,-4262 8197,-6910 9195,-13475z"/>
   <path class="fil1 str1" d="M67180 37539c598,-1424 -224,-2845 -1082,-3483 -1190,-887 -2445,-695 -4033,-688 -6414,28 -24850,-461 -28772,422 -5168,1165 -8883,4631 -10692,8766 -2103,4805 -1400,12109 -1400,17779l0 58099c0,5838 -753,12723 1433,17749 5084,11685 18386,9075 29978,9075 12880,0 25760,0 38640,0 7122,0 33060,850 37808,-968 4602,-1763 7877,-5110 9455,-10000 1281,-3970 757,-21898 758,-28088 0,-3042 602,-6710 -2714,-7032 -3772,-365 -3542,3080 -3539,6197 5,5941 658,25406 -902,28355 -3274,6185 -8475,5352 -13901,5352 -25760,0 -51520,-1 -77280,0 -3254,0 -5958,217 -8643,-1159 -1954,-1001 -3572,-2842 -4395,-5322 -977,-2941 -514,-14902 -514,-18886 0,-12880 0,-25760 0,-38640 0,-3858 -410,-25928 416,-28711 756,-2550 2362,-4281 4084,-5364 3582,-2254 13380,-1368 18227,-1368 3243,0 6486,0 9729,0 3322,0 6190,653 7339,-2085z"/>
  </g>
 </g>
</svg>
