<?xml version="1.0" encoding="UTF-8"?>
<!DOCTYPE svg PUBLIC "-//W3C//DTD SVG 1.1//EN" "http://www.w3.org/Graphics/SVG/1.1/DTD/svg11.dtd">
<!-- Creator: CorelDRAW (Not for commercial use) -->
<svg xmlns="http://www.w3.org/2000/svg" xml:space="preserve" width="0.504189in" height="0.504189in" version="1.1" style="shape-rendering:geometricPrecision; text-rendering:geometricPrecision; image-rendering:optimizeQuality; fill-rule:evenodd; clip-rule:evenodd"
viewBox="0 0 2038146 2038146"
 xmlns:xlink="http://www.w3.org/1999/xlink"
 xmlns:xodm="http://www.corel.com/coreldraw/odm/2003">
 <defs>
  <style type="text/css">
   <![CDATA[
    .str2 {stroke:#373535;stroke-width:84222;stroke-miterlimit:2.61313}
    .str0 {stroke:#373535;stroke-width:12127;stroke-miterlimit:2.61313}
    .str1 {stroke:black;stroke-width:12127;stroke-miterlimit:2.61313}
    .fil0 {fill:#E6E7E8}
    .fil1 {fill:black}
   ]]>
  </style>
 </defs>
 <g id="Layer_x0020_1">
  <metadata id="CorelCorpID_0Corel-Layer"/>
  <rect class="fil0 str0" x="6066" y="6062" width="2026026" height="2026026" rx="237751" ry="237751"/>
  <g id="_105553260681664">
   <path class="fil1 str1" d="M875965 1022479c-15008,-14403 -60955,-41697 -77586,-52695 -80037,-52870 -138716,-77156 -185554,-192174 -58265,-143076 -10965,-285246 78127,-373399 205798,-203601 578640,-73050 578640,245458 0,198302 -118854,259463 -237787,342317 -23682,16488 -36636,18191 -43989,35395 37369,21915 138222,41331 191761,60414 24175,8626 58376,26005 85305,39406 90095,44769 142917,93119 206211,171389 38880,48095 63565,105692 63565,185235l-1050 242991 -1207491 -414 -716 -256551c0,-131299 128721,-240699 204286,-294810 46806,-33517 113267,-64297 167363,-84955 49910,-19050 165580,-45867 178917,-67607zm297978 -22886c7607,-19591 29650,-29793 45231,-43878 117628,-106440 168047,-296864 109671,-446974 -65602,-168700 -209713,-283829 -406439,-282938 -299251,1337 -498062,316153 -379081,593616 50005,116594 120525,147819 152880,184424 -13416,8069 -37560,14180 -55353,21167 -109559,43002 -255723,144461 -318842,235766 -21629,31289 -43193,66175 -56642,101856 -20037,53109 -21597,67894 -21549,135182 64,103241 0,206498 0,309739 42445,7512 940389,2499 1028129,2499 109050,0 234333,5682 341394,-875 143,-103798 -48,-207580 16,-311362 48,-54366 -812,-98466 -18748,-141071 -45597,-108206 -118567,-189548 -212784,-253415 -116673,-79098 -146212,-69310 -207882,-103734z"/>
   <circle class="fil0 str2" cx="1490580" cy="1259398" r="303763"/>
   <g>
    <rect class="fil1 str1" x="1294225" y="1227892" width="392696" height="63033" rx="19635" ry="31516"/>
    <rect class="fil1 str1" transform="matrix(1.11176E-014 -4.19777E-001 0.673797 1.78452E-014 1.45906E+006 1.45575E+006)" width="935487" height="93549" rx="46774" ry="46774"/>
   </g>
  </g>
 </g>
</svg>
