<?xml version="1.0" encoding="UTF-8"?>
<!DOCTYPE svg PUBLIC "-//W3C//DTD SVG 1.1//EN" "http://www.w3.org/Graphics/SVG/1.1/DTD/svg11.dtd">
<!-- Creator: CorelDRAW (Not for commercial use) -->
<svg xmlns="http://www.w3.org/2000/svg" xml:space="preserve" width="2.35602in" height="0.307335in" version="1.1" style="shape-rendering:geometricPrecision; text-rendering:geometricPrecision; image-rendering:optimizeQuality; fill-rule:evenodd; clip-rule:evenodd"
viewBox="0 0 76183 9938"
 xmlns:xlink="http://www.w3.org/1999/xlink"
 xmlns:xodm="http://www.corel.com/coreldraw/odm/2003">
 <defs>
  <style type="text/css">
   <![CDATA[
    .fil0 {fill:#373535;fill-rule:nonzero}
   ]]>
  </style>
 </defs>
 <g id="Layer_x0020_1">
  <metadata id="CorelCorpID_0Corel-Layer"/>
  <polygon class="fil0" points="0,7610 1261,431 2986,431 2382,3880 4969,431 7092,431 4225,4128 6155,7610 4161,7610 2350,4064 1725,7610 "/>
  <path id="1" class="fil0" d="M6737 7610l938 -5282 1617 0 -151 819c162,-270 388,-485 657,-668 270,-172 593,-259 970,-259 248,0 464,43 647,140 183,97 334,226 453,388 119,162 216,356 280,582 54,226 86,464 86,722 0,97 0,205 -11,313 -11,108 -32,216 -43,313l-517 2932 -1681 0 517 -2932c11,-75 22,-151 32,-237 11,-75 11,-162 11,-237 0,-183 -32,-345 -97,-474 -65,-129 -183,-194 -345,-194 -226,0 -431,108 -636,313 -205,205 -367,442 -507,701l-539 3061 -1681 0z"/>
  <path id="2" class="fil0" d="M18421 4419c0,420 -65,830 -194,1229 -140,399 -334,754 -593,1056 -270,313 -593,550 -981,733 -399,183 -852,280 -1358,280 -356,0 -679,-54 -959,-172 -280,-119 -517,-270 -711,-474 -194,-205 -345,-442 -442,-711 -108,-270 -162,-550 -162,-852 0,-507 75,-959 226,-1358 140,-399 345,-744 614,-1035 270,-291 593,-507 970,-668 377,-151 798,-226 1261,-226 377,0 711,54 1002,172 291,119 528,270 733,464 194,205 345,431 442,701 97,270 151,561 151,862zm-2953 2015c226,0 420,-65 582,-183 162,-119 291,-280 388,-464 97,-183 172,-399 226,-625 54,-226 75,-442 75,-647 0,-270 -65,-507 -194,-711 -129,-205 -334,-302 -625,-302 -205,0 -377,54 -528,162 -151,119 -280,259 -377,442 -108,183 -183,399 -237,636 -54,237 -75,474 -75,722 0,259 65,485 183,679 119,194 313,291 582,291z"/>
  <path id="3" class="fil0" d="M23735 7610c-75,-356 -140,-690 -205,-1002 -65,-313 -129,-604 -183,-884 -65,-280 -119,-550 -172,-819 -54,-259 -97,-517 -151,-776 -97,323 -205,625 -302,916 -97,291 -205,582 -313,862 -119,280 -237,560 -356,830 -129,280 -270,571 -410,873l-1800 0c-54,-528 -108,-1024 -162,-1487 -65,-464 -129,-916 -194,-1347 -75,-420 -151,-841 -237,-1240 -86,-399 -183,-808 -280,-1207l1617 0c75,313 129,614 183,895 54,291 97,571 140,841 32,269 65,550 86,819 22,280 43,571 54,862 119,-291 226,-571 323,-830 97,-259 183,-517 269,-787 86,-270 172,-550 259,-841 86,-291 183,-604 280,-959l1789 0 744 3417c162,-474 313,-1002 431,-1584 119,-571 183,-1186 194,-1832l1638 0c-75,916 -248,1811 -517,2673 -270,873 -625,1735 -1056,2608l-1671 0z"/>
  <polygon id="4" class="fil0" points="27033,7610 28380,0 30062,0 28714,7610 "/>
  <path id="5" class="fil0" d="M33177 2220c259,0 496,32 701,97 205,75 377,172 517,291 140,119 248,259 323,420 75,162 108,334 108,517 0,356 -86,668 -270,916 -183,259 -420,474 -711,636 -291,172 -625,302 -992,377 -367,75 -733,119 -1099,119 -11,43 -11,75 -11,108 0,32 0,65 0,97 0,226 54,399 162,517 108,119 291,183 539,183 226,0 474,-32 744,-108 269,-65 517,-172 765,-313l323 1078c-291,183 -614,313 -970,410 -356,97 -733,151 -1132,151 -345,0 -647,-54 -895,-162 -259,-97 -474,-248 -647,-431 -172,-183 -302,-388 -377,-636 -86,-237 -129,-496 -129,-765 0,-507 75,-970 216,-1401 140,-420 345,-798 614,-1110 259,-313 582,-550 959,-733 377,-172 798,-259 1261,-259zm-259 1153c-226,0 -442,108 -625,313 -183,216 -313,496 -366,841 183,-11 356,-32 528,-75 162,-32 313,-86 442,-162 129,-75 237,-151 313,-248 75,-97 108,-205 108,-323 0,-226 -129,-345 -399,-345z"/>
  <path id="6" class="fil0" d="M39924 7610l-1606 0 140 -895c-226,302 -485,539 -755,722 -269,183 -582,280 -927,280 -280,0 -517,-65 -722,-183 -205,-119 -366,-280 -496,-474 -129,-194 -226,-410 -280,-658 -54,-248 -86,-496 -86,-744 0,-442 65,-862 205,-1283 140,-410 334,-776 604,-1099 259,-313 582,-571 970,-765 377,-194 819,-291 1304,-291 140,0 302,11 485,32 172,32 313,65 410,97l420 -2350 1681 0 -1347 7610zm-2555 -1207c399,0 819,-377 1283,-1121l302 -1703c-75,-32 -162,-54 -259,-75 -97,-22 -205,-32 -302,-32 -259,0 -485,65 -668,194 -194,140 -356,302 -474,507 -129,205 -226,431 -280,679 -65,248 -97,496 -97,733 0,216 43,410 119,571 75,162 194,248 377,248z"/>
  <path id="7" class="fil0" d="M46143 7135c-75,410 -183,787 -334,1132 -151,345 -345,647 -593,895 -248,248 -539,431 -873,571 -334,140 -733,205 -1186,205 -323,0 -679,-43 -1056,-119 -388,-75 -744,-194 -1078,-356l323 -1218c302,140 582,237 852,302 269,54 528,86 776,86 453,0 798,-129 1024,-388 226,-259 377,-636 464,-1121l108 -614c-205,270 -442,496 -711,668 -269,172 -571,259 -916,259 -280,0 -517,-54 -722,-172 -205,-108 -367,-259 -485,-442 -129,-183 -226,-388 -280,-614 -54,-226 -86,-463 -86,-711 0,-463 65,-895 205,-1293 129,-399 323,-744 582,-1035 259,-291 582,-528 959,-701 377,-162 819,-248 1326,-248 431,0 862,54 1283,151 420,108 808,259 1175,453l-755 4311zm-2598 -1002c183,0 399,-97 625,-280 226,-183 442,-453 657,-808l259 -1477c-54,-32 -129,-54 -226,-75 -97,-22 -216,-32 -334,-32 -259,0 -485,54 -668,172 -183,119 -345,259 -463,442 -119,183 -216,399 -270,625 -54,226 -86,464 -86,701 0,216 43,388 119,528 75,140 205,205 388,205z"/>
  <path id="8" class="fil0" d="M50498 2220c259,0 496,32 701,97 205,75 377,172 517,291 140,119 248,259 323,420 75,162 108,334 108,517 0,356 -86,668 -270,916 -183,259 -420,474 -711,636 -291,172 -625,302 -992,377 -367,75 -733,119 -1099,119 -11,43 -11,75 -11,108 0,32 0,65 0,97 0,226 54,399 162,517 108,119 291,183 539,183 226,0 474,-32 744,-108 269,-65 517,-172 765,-313l323 1078c-291,183 -614,313 -970,410 -356,97 -733,151 -1132,151 -345,0 -647,-54 -895,-162 -259,-97 -474,-248 -647,-431 -172,-183 -302,-388 -377,-636 -86,-237 -129,-496 -129,-765 0,-507 75,-970 216,-1401 140,-420 345,-798 614,-1110 259,-313 582,-550 959,-733 377,-172 798,-259 1261,-259zm-259 1153c-226,0 -442,108 -625,313 -183,216 -313,496 -366,841 183,-11 356,-32 528,-75 162,-32 313,-86 442,-162 129,-75 237,-151 313,-248 75,-97 108,-205 108,-323 0,-226 -129,-345 -399,-345z"/>
  <path id="9" class="fil0" d="M54734 7610l1261 -7178 2587 0c280,0 539,32 787,97 248,75 464,172 647,302 183,140 334,302 442,496 108,205 162,431 162,679 0,259 -43,485 -129,690 -86,205 -205,377 -345,528 -151,151 -323,280 -528,388 -205,119 -420,205 -657,280 410,129 744,313 992,561 248,248 367,560 367,959 0,420 -97,776 -302,1056 -205,291 -464,517 -776,679 -313,172 -658,291 -1024,356 -377,75 -733,108 -1067,108l-2414 0zm3891 -2242c0,-280 -97,-485 -302,-604 -205,-119 -463,-172 -765,-172l-593 0 -302 1725 679 0c172,0 334,-22 496,-65 162,-32 291,-97 410,-172 119,-75 205,-183 280,-302 65,-119 97,-248 97,-410zm-905 -2059c313,0 571,-75 798,-237 226,-162 334,-388 334,-690 0,-205 -75,-367 -216,-485 -140,-119 -334,-172 -561,-172l-604 0 -280 1584 528 0z"/>
  <path id="10" class="fil0" d="M65566 7610l-1595 0 183 -1164c-97,162 -194,323 -313,474 -119,162 -259,291 -399,410 -140,119 -302,216 -464,291 -162,65 -345,97 -528,97 -259,0 -485,-54 -668,-162 -194,-108 -345,-259 -464,-442 -119,-183 -216,-388 -269,-625 -54,-237 -86,-485 -86,-744 0,-474 65,-927 205,-1358 140,-420 334,-798 604,-1121 259,-323 582,-582 981,-765 388,-183 841,-280 1358,-280 399,0 787,43 1164,119 377,75 755,205 1153,388l-862 4883zm-2544 -1207c119,0 248,-54 388,-172 129,-108 259,-248 377,-410 119,-162 237,-345 345,-550 97,-194 183,-377 259,-539l205 -1153c-162,-75 -345,-108 -528,-108 -248,0 -463,75 -647,216 -183,151 -323,334 -442,561 -119,226 -205,464 -259,722 -54,259 -86,496 -86,711 0,86 0,172 11,248 11,86 22,162 54,237 32,75 65,129 119,172 54,43 119,65 205,65z"/>
  <path id="11" class="fil0" d="M70837 5928c0,291 -54,539 -172,765 -119,226 -269,410 -474,561 -205,151 -442,270 -711,345 -270,75 -571,119 -884,119 -334,0 -657,-32 -970,-108 -323,-75 -593,-162 -798,-270l323 -1196c205,108 442,194 711,259 270,75 507,108 733,108 172,0 334,-22 474,-75 140,-43 216,-129 216,-259 0,-119 -65,-226 -205,-302 -140,-75 -302,-172 -474,-270 -420,-248 -733,-507 -959,-755 -226,-248 -334,-560 -334,-938 0,-280 54,-528 162,-744 97,-205 237,-388 420,-528 183,-140 399,-237 647,-313 248,-75 507,-108 798,-108 625,0 1196,140 1703,431l-323 1164c-205,-108 -431,-205 -658,-280 -226,-75 -442,-108 -636,-108 -140,0 -259,11 -367,43 -108,32 -162,119 -162,237 0,97 54,183 162,248 97,75 237,162 410,280 140,97 302,194 464,291 162,108 302,226 442,367 129,140 237,291 334,453 86,172 129,367 129,582z"/>
  <path id="12" class="fil0" d="M74534 2220c259,0 496,32 701,97 205,75 377,172 517,291 140,119 248,259 323,420 75,162 108,334 108,517 0,356 -86,668 -270,916 -183,259 -420,474 -711,636 -291,172 -625,302 -992,377 -367,75 -733,119 -1099,119 -11,43 -11,75 -11,108 0,32 0,65 0,97 0,226 54,399 162,517 108,119 291,183 539,183 226,0 474,-32 744,-108 269,-65 517,-172 765,-313l323 1078c-291,183 -614,313 -970,410 -356,97 -733,151 -1132,151 -345,0 -647,-54 -895,-162 -259,-97 -474,-248 -647,-431 -172,-183 -302,-388 -377,-636 -86,-237 -129,-496 -129,-765 0,-507 75,-970 216,-1401 140,-420 345,-798 614,-1110 259,-313 582,-550 959,-733 377,-172 798,-259 1261,-259zm-259 1153c-226,0 -442,108 -625,313 -183,216 -313,496 -366,841 183,-11 356,-32 528,-75 162,-32 313,-86 442,-162 129,-75 237,-151 313,-248 75,-97 108,-205 108,-323 0,-226 -129,-345 -399,-345z"/>
 </g>
</svg>
