<?xml version="1.0" encoding="UTF-8"?>
<!DOCTYPE svg PUBLIC "-//W3C//DTD SVG 1.1//EN" "http://www.w3.org/Graphics/SVG/1.1/DTD/svg11.dtd">
<!-- Creator: CorelDRAW (Not for commercial use) -->
<svg xmlns="http://www.w3.org/2000/svg" xml:space="preserve" width="2.91902in" height="0.242669in" version="1.1" style="shape-rendering:geometricPrecision; text-rendering:geometricPrecision; image-rendering:optimizeQuality; fill-rule:evenodd; clip-rule:evenodd"
viewBox="0 0 116373 9674"
 xmlns:xlink="http://www.w3.org/1999/xlink"
 xmlns:xodm="http://www.corel.com/coreldraw/odm/2003">
 <defs>
  <style type="text/css">
   <![CDATA[
    .fil0 {fill:#373535;fill-rule:nonzero}
   ]]>
  </style>
 </defs>
 <g id="Layer_x0020_1">
  <metadata id="CorelCorpID_0Corel-Layer"/>
  <path class="fil0" d="M0 9515l1555 -8850 3189 0c346,0 665,40 970,120 306,93 571,213 797,372 226,173 412,372 545,611 133,253 199,532 199,837 0,319 -53,598 -159,851 -106,253 -253,465 -425,651 -186,186 -399,345 -651,478 -252,146 -518,252 -811,345 505,159 917,385 1223,691 306,306 452,691 452,1183 0,518 -120,957 -372,1302 -253,359 -571,638 -957,837 -385,213 -811,359 -1262,439 -465,93 -904,133 -1316,133l-2977 0zm4797 -2764c0,-345 -120,-598 -372,-744 -252,-146 -571,-213 -943,-213l-731 0 -372 2126 837 0c213,0 412,-27 611,-80 199,-40 359,-120 505,-213 146,-93 252,-226 345,-372 80,-146 120,-306 120,-505zm-1116 -2538c385,0 704,-93 983,-292 279,-199 412,-478 412,-850 0,-253 -93,-452 -266,-598 -173,-146 -412,-213 -691,-213l-744 0 -346 1953 651 0z"/>
  <path id="1" class="fil0" d="M13356 9515l-1967 0 226 -1435c-120,199 -239,399 -385,585 -146,199 -319,359 -492,505 -173,146 -372,266 -571,359 -199,80 -425,120 -651,120 -319,0 -598,-67 -824,-199 -239,-133 -425,-319 -571,-545 -146,-226 -266,-478 -332,-771 -67,-292 -106,-598 -106,-917 0,-585 80,-1143 253,-1674 173,-518 412,-983 744,-1382 319,-399 718,-718 1209,-943 478,-226 1037,-346 1674,-346 492,0 970,53 1435,146 465,93 930,253 1422,478l-1063 6020zm-3136 -1488c146,0 306,-66 478,-213 159,-133 319,-306 465,-505 146,-199 292,-425 425,-678 120,-239 226,-465 319,-664l253 -1422c-199,-93 -425,-133 -651,-133 -306,0 -571,93 -797,266 -226,186 -399,412 -545,691 -146,279 -253,571 -319,890 -66,319 -106,611 -106,877 0,106 0,213 13,306 13,106 27,199 67,292 40,93 80,159 146,213 66,53 146,80 253,80z"/>
  <path id="2" class="fil0" d="M14910 9515l1156 -6512 1993 0 -186 1010c199,-332 478,-598 811,-824 332,-213 731,-319 1196,-319 306,0 571,53 797,173 226,120 412,279 558,478 146,199 266,439 346,718 66,279 106,571 106,890 0,120 0,253 -13,385 -13,133 -40,266 -53,385l-638 3615 -2073 0 638 -3615c13,-93 27,-186 40,-292 13,-93 13,-199 13,-292 0,-226 -40,-425 -120,-585 -80,-159 -226,-239 -425,-239 -279,0 -532,133 -784,385 -253,253 -452,545 -625,864l-664 3774 -2073 0z"/>
  <path id="3" class="fil0" d="M26392 2870c731,0 1382,186 1953,571l-492 1462c-226,-120 -465,-226 -691,-306 -239,-66 -478,-106 -718,-106 -292,0 -545,66 -757,199 -226,133 -399,306 -545,518 -146,226 -266,478 -332,757 -66,279 -106,571 -106,864 0,385 93,678 266,890 173,213 439,319 824,319 518,0 983,-120 1395,-345l372 1422c-292,173 -611,292 -943,385 -345,93 -718,146 -1130,146 -465,0 -877,-67 -1236,-213 -359,-146 -651,-332 -877,-585 -239,-253 -412,-545 -531,-890 -120,-345 -186,-731 -186,-1143 0,-545 80,-1063 253,-1555 159,-478 399,-890 718,-1249 306,-359 704,-638 1169,-837 465,-199 997,-306 1595,-306z"/>
  <path id="4" class="fil0" d="M35283 5582c0,518 -80,1023 -239,1515 -173,492 -412,930 -731,1302 -332,385 -731,678 -1209,904 -492,226 -1050,346 -1674,346 -439,0 -837,-67 -1183,-213 -346,-146 -638,-332 -877,-585 -239,-253 -425,-545 -545,-877 -133,-332 -199,-678 -199,-1050 0,-625 93,-1183 279,-1674 173,-492 425,-917 757,-1276 332,-359 731,-625 1196,-824 465,-186 983,-279 1555,-279 465,0 877,67 1236,213 359,146 651,332 904,571 239,253 425,532 545,864 120,332 186,691 186,1063zm-3641 2485c279,0 518,-80 718,-226 199,-146 359,-345 478,-571 120,-226 213,-492 279,-771 66,-279 93,-545 93,-797 0,-332 -80,-625 -239,-877 -159,-253 -412,-372 -771,-372 -253,0 -465,66 -651,199 -186,146 -345,319 -465,545 -133,226 -226,492 -292,784 -66,292 -93,585 -93,890 0,319 80,598 226,837 146,239 385,359 718,359z"/>
  <path id="5" class="fil0" d="M44545 9515l-1980 0 173 -1103c-279,372 -598,664 -930,890 -332,226 -718,346 -1143,346 -345,0 -638,-80 -890,-226 -252,-146 -452,-345 -611,-585 -159,-239 -279,-505 -346,-811 -66,-306 -106,-611 -106,-917 0,-545 80,-1063 253,-1581 173,-505 412,-957 744,-1355 319,-385 718,-704 1196,-943 465,-239 1010,-359 1608,-359 173,0 372,13 598,40 213,40 385,80 505,120l518 -2897 2073 0 -1661 9382zm-3149 -1488c492,0 1010,-465 1581,-1382l372 -2100c-93,-40 -199,-67 -319,-93 -120,-27 -253,-40 -372,-40 -319,0 -598,80 -824,239 -239,173 -439,372 -585,625 -159,253 -279,532 -345,837 -80,306 -120,611 -120,904 0,266 53,505 146,704 93,199 239,306 465,306z"/>
  <path id="6" class="fil0" d="M50047 2870c319,0 611,40 864,120 253,93 465,213 638,359 173,146 306,319 399,518 93,199 133,412 133,638 0,439 -106,824 -332,1129 -226,319 -518,585 -877,784 -359,213 -771,372 -1223,465 -452,93 -904,146 -1355,146 -13,53 -13,93 -13,133 0,40 0,80 0,120 0,279 67,492 199,638 133,146 359,226 665,226 279,0 585,-40 917,-133 332,-80 638,-213 943,-385l399 1329c-359,226 -757,385 -1196,505 -439,120 -904,186 -1395,186 -425,0 -797,-67 -1103,-199 -319,-120 -585,-306 -797,-532 -213,-226 -372,-478 -465,-784 -106,-292 -159,-611 -159,-944 0,-625 93,-1196 266,-1727 173,-518 425,-983 757,-1369 319,-385 718,-678 1183,-904 465,-213 983,-319 1555,-319zm-319 1422c-279,0 -545,133 -771,385 -226,266 -385,611 -452,1037 226,-13 439,-40 651,-93 199,-40 385,-106 545,-199 159,-93 292,-186 385,-306 93,-120 133,-252 133,-399 0,-279 -159,-425 -492,-425z"/>
  <path id="7" class="fil0" d="M61236 6937c0,412 -80,797 -239,1129 -173,332 -399,625 -691,864 -292,239 -638,425 -1050,545 -412,133 -850,199 -1342,199 -425,0 -890,-53 -1395,-146 -505,-106 -957,-253 -1342,-452l452 -1635c359,173 744,319 1130,412 385,93 744,146 1090,146 146,0 306,-13 452,-40 146,-27 279,-80 399,-146 120,-67 213,-146 279,-253 67,-106 106,-239 106,-399 0,-226 -93,-425 -266,-611 -173,-186 -478,-425 -904,-704 -266,-173 -518,-359 -744,-558 -226,-186 -425,-385 -598,-611 -173,-226 -292,-465 -385,-718 -93,-252 -146,-531 -146,-837 0,-425 66,-797 213,-1130 146,-332 345,-598 611,-824 266,-213 585,-372 957,-492 372,-120 784,-173 1249,-173 930,0 1794,226 2578,691l-439 1581c-292,-173 -611,-306 -970,-425 -359,-120 -691,-173 -1023,-173 -306,0 -545,40 -744,133 -199,93 -306,292 -306,571 0,186 80,359 226,505 146,159 399,372 757,651 266,199 532,399 784,598 253,199 465,425 665,651 186,226 345,478 465,744 120,279 173,571 173,904z"/>
  <path id="8" class="fil0" d="M68691 5582c0,518 -80,1023 -239,1515 -173,492 -412,930 -731,1302 -332,385 -731,678 -1209,904 -492,226 -1050,346 -1674,346 -439,0 -837,-67 -1183,-213 -346,-146 -638,-332 -877,-585 -239,-253 -425,-545 -545,-877 -133,-332 -199,-678 -199,-1050 0,-625 93,-1183 279,-1674 173,-492 425,-917 757,-1276 332,-359 731,-625 1196,-824 465,-186 983,-279 1555,-279 465,0 877,67 1236,213 359,146 651,332 904,571 239,253 425,532 545,864 120,332 186,691 186,1063zm-3641 2485c279,0 518,-80 718,-226 199,-146 359,-345 478,-571 120,-226 213,-492 279,-771 66,-279 93,-545 93,-797 0,-332 -80,-625 -239,-877 -159,-253 -412,-372 -771,-372 -253,0 -465,66 -651,199 -186,146 -345,319 -465,545 -133,226 -226,492 -292,784 -66,292 -93,585 -93,890 0,319 80,598 226,837 146,239 385,359 718,359z"/>
  <polygon id="9" class="fil0" points="69210,9515 70871,133 72944,133 71283,9515 "/>
  <path id="10" class="fil0" d="M79907 3003l-1156 6512 -1967 0 199 -1169c-253,372 -532,678 -851,930 -332,253 -731,372 -1196,372 -625,0 -1063,-186 -1329,-558 -266,-372 -399,-917 -399,-1648 0,-146 13,-292 27,-425 13,-133 27,-279 53,-439l625 -3575 2073 0 -638 3641c-40,253 -66,478 -66,678 0,199 40,372 106,505 66,133 186,199 372,199 146,0 279,-40 425,-133 133,-80 266,-186 385,-319 120,-133 239,-292 346,-465 106,-173 199,-345 292,-518l625 -3588 2073 0z"/>
  <path id="11" class="fil0" d="M84226 2870c731,0 1382,186 1953,571l-492 1462c-226,-120 -465,-226 -691,-306 -239,-66 -478,-106 -718,-106 -292,0 -545,66 -757,199 -226,133 -399,306 -545,518 -146,226 -266,478 -332,757 -66,279 -106,571 -106,864 0,385 93,678 266,890 173,213 439,319 824,319 518,0 983,-120 1395,-345l372 1422c-292,173 -611,292 -943,385 -345,93 -718,146 -1130,146 -465,0 -877,-67 -1236,-213 -359,-146 -651,-332 -877,-585 -239,-253 -412,-545 -531,-890 -120,-345 -186,-731 -186,-1143 0,-545 80,-1063 253,-1555 159,-478 399,-890 718,-1249 306,-359 704,-638 1169,-837 465,-199 997,-306 1595,-306z"/>
  <path id="12" class="fil0" d="M86313 9515l1143 -6512 2073 0 -1143 6512 -2073 0zm1355 -8252c0,-359 120,-665 345,-904 226,-239 545,-359 957,-359 306,0 545,93 744,266 186,186 279,425 279,718 0,159 -27,319 -80,465 -67,146 -146,279 -253,399 -120,120 -253,226 -412,292 -173,66 -359,106 -571,106 -306,0 -558,-93 -731,-292 -186,-186 -279,-412 -279,-691z"/>
  <path id="13" class="fil0" d="M96784 5582c0,518 -80,1023 -239,1515 -173,492 -412,930 -731,1302 -332,385 -731,678 -1209,904 -492,226 -1050,346 -1674,346 -439,0 -837,-67 -1183,-213 -346,-146 -638,-332 -877,-585 -239,-253 -425,-545 -545,-877 -133,-332 -199,-678 -199,-1050 0,-625 93,-1183 279,-1674 173,-492 425,-917 757,-1276 332,-359 731,-625 1196,-824 465,-186 983,-279 1555,-279 465,0 877,67 1236,213 359,146 651,332 904,571 239,253 425,532 545,864 120,332 186,691 186,1063zm-3641 2485c279,0 518,-80 718,-226 199,-146 359,-345 478,-571 120,-226 213,-492 279,-771 66,-279 93,-545 93,-797 0,-332 -80,-625 -239,-877 -159,-253 -412,-372 -771,-372 -253,0 -465,66 -651,199 -186,146 -345,319 -465,545 -133,226 -226,492 -292,784 -66,292 -93,585 -93,890 0,319 80,598 226,837 146,239 385,359 718,359z"/>
  <path id="14" class="fil0" d="M97303 9515l1156 -6512 1993 0 -186 1010c199,-332 478,-598 811,-824 332,-213 731,-319 1196,-319 306,0 571,53 797,173 226,120 412,279 558,478 146,199 266,439 346,718 66,279 106,571 106,890 0,120 0,253 -13,385 -13,133 -40,266 -53,385l-638 3615 -2073 0 638 -3615c13,-93 27,-186 40,-292 13,-93 13,-199 13,-292 0,-226 -40,-425 -120,-585 -80,-159 -226,-239 -425,-239 -279,0 -532,133 -784,385 -253,253 -452,545 -625,864l-664 3774 -2073 0z"/>
  <path id="15" class="fil0" d="M108811 2870c319,0 611,40 864,120 253,93 465,213 638,359 173,146 306,319 399,518 93,199 133,412 133,638 0,439 -106,824 -332,1129 -226,319 -518,585 -877,784 -359,213 -771,372 -1223,465 -452,93 -904,146 -1355,146 -13,53 -13,93 -13,133 0,40 0,80 0,120 0,279 67,492 199,638 133,146 359,226 665,226 279,0 585,-40 917,-133 332,-80 638,-213 943,-385l399 1329c-359,226 -757,385 -1196,505 -439,120 -904,186 -1395,186 -425,0 -797,-67 -1103,-199 -319,-120 -585,-306 -797,-532 -213,-226 -372,-478 -465,-784 -106,-292 -159,-611 -159,-944 0,-625 93,-1196 266,-1727 173,-518 425,-983 757,-1369 319,-385 718,-678 1183,-904 465,-213 983,-319 1555,-319zm-319 1422c-279,0 -545,133 -771,385 -226,266 -385,611 -452,1037 226,-13 439,-40 651,-93 199,-40 385,-106 545,-199 159,-93 292,-186 385,-306 93,-120 133,-252 133,-399 0,-279 -159,-425 -492,-425z"/>
  <path id="16" class="fil0" d="M116120 7442c0,359 -66,664 -213,943 -146,279 -332,505 -585,691 -253,186 -545,332 -877,425 -332,93 -704,146 -1090,146 -412,0 -811,-40 -1196,-133 -399,-93 -731,-199 -983,-332l399 -1475c253,133 545,239 877,319 332,93 625,133 904,133 213,0 412,-27 585,-93 173,-53 266,-159 266,-319 0,-146 -80,-279 -253,-372 -173,-93 -372,-213 -585,-332 -518,-306 -904,-625 -1183,-930 -279,-306 -412,-691 -412,-1156 0,-345 66,-651 199,-917 120,-252 292,-478 518,-651 226,-173 492,-292 797,-385 306,-93 625,-133 983,-133 771,0 1475,173 2100,532l-399 1435c-253,-133 -532,-252 -811,-345 -279,-93 -545,-133 -784,-133 -173,0 -319,13 -452,53 -133,40 -199,146 -199,292 0,120 66,226 199,306 120,93 292,199 505,345 173,120 372,239 571,359 199,133 372,279 545,452 159,173 292,359 412,558 106,213 159,452 159,718z"/>
 </g>
</svg>
