<?xml version="1.0" encoding="UTF-8"?>
<!DOCTYPE svg PUBLIC "-//W3C//DTD SVG 1.1//EN" "http://www.w3.org/Graphics/SVG/1.1/DTD/svg11.dtd">
<!-- Creator: CorelDRAW (Not for commercial use) -->
<svg xmlns="http://www.w3.org/2000/svg" xml:space="preserve" width="1.48428in" height="1.58291in" version="1.1" style="shape-rendering:geometricPrecision; text-rendering:geometricPrecision; image-rendering:optimizeQuality; fill-rule:evenodd; clip-rule:evenodd"
viewBox="0 0 30588 32620"
 xmlns:xlink="http://www.w3.org/1999/xlink"
 xmlns:xodm="http://www.corel.com/coreldraw/odm/2003">
 <defs>
  <style type="text/css">
   <![CDATA[
    .fil0 {fill:#DE2B2F}
   ]]>
  </style>
 </defs>
 <g id="Layer_x0020_1">
  <metadata id="CorelCorpID_0Corel-Layer"/>
  <path class="fil0" d="M20085 14478c1958,-1702 8492,-6458 9374,-7591 1236,-1589 1715,-4916 93,-6240 -2051,-1674 -4726,319 -6129,1288 -4815,3324 -9554,7825 -13343,12004 -1437,-1215 -3290,-3461 -4682,-5189 -1524,-1892 -3351,-5514 -4908,-2666 -2121,3878 3230,11573 5015,13362 -340,779 -1164,1748 -1682,2603 -552,910 -1060,1782 -1546,2790 -832,1724 -1952,4870 -563,6887 1863,2705 3849,-1467 4663,-2624 610,-867 1158,-1693 1816,-2515 666,-831 1273,-1538 1808,-2303l3272 2574c1055,823 2198,1592 3396,2380 1921,1263 5577,3968 7843,1397 966,-1095 1068,-3006 582,-4578 -1058,-3425 -5354,-4352 -8803,-6922 -106,-79 -336,-269 -394,-323 -207,-197 -133,-119 -248,-285l4435 -4047z"/>
 </g>
</svg>
